# xmcd
#
# Track frame offsets: 
#        150
#        11830
#        26576
#        42188
#        53455
#        67540
#        81262
#        94587
#        108401
#        119129
#        131136
#        142772
#        156519
#
# Disc length: 2252 seconds
#
# Revision: 0
# Processed by: cddbd v1.5.2PL0 Copyright (c) Steve Scherf et al.
# Submitted via: ExactAudioCopy v0.99pb3
#
DISCID=a608ca0d
DTITLE=Little David Wilkins - Top 10 Hits Plus 3
DYEAR=2004
DGENRE=Country
TTITLE0=One Monkey Don't Sop No Show
TTITLE1=Georgia Keeps Pulling on My Ring
TTITLE2=Goodnight Special
TTITLE3=Who Ever Turned You On (Forgot to Turn You Off)
TTITLE4=Butter Beans
TTITLE5=Agree to Disagree
TTITLE6=Love in the Back Seat
TTITLE7=He'll Play the Music (But You Can't Make Him Dance)
TTITLE8=Comin' on Strong
TTITLE9=Not Tonight I've Got a Headache
TTITLE10=Makin' Love in Waltz Time
TTITLE11=Only Good Part of Leaving
TTITLE12=King of All the Taverns
EXTD=
EXTT0=
EXTT1=
EXTT2=
EXTT3=
EXTT4=
EXTT5=
EXTT6=
EXTT7=
EXTT8=
EXTT9=
EXTT10=
EXTT11=
EXTT12=
PLAYORDER=
